<?xml version="1.0" encoding="UTF-8"?>
<!DOCTYPE svg PUBLIC "-//W3C//DTD SVG 1.1//EN" "http://www.w3.org/Graphics/SVG/1.1/DTD/svg11.dtd">
<svg xmlns="http://www.w3.org/2000/svg" version="1.1"
width="80" height="80" viewBox="180 180 200 100"
style="shape-rendering:geometricPrecision; text-rendering:geometricPrecision; image-rendering:optimizeQuality; fill-rule:evenodd; clip-rule:evenodd" xmlns:xlink="http://www.w3.org/1999/xlink">
<g><path style="opacity:1" fill="#fefefe" d="M -0.5,-0.5 C 166.167,-0.5 332.833,-0.5 499.5,-0.5C 499.5,166.167 499.5,332.833 499.5,499.5C 332.833,499.5 166.167,499.5 -0.5,499.5C -0.5,332.833 -0.5,166.167 -0.5,-0.5 Z"/></g>
<g><path style="opacity:1" fill="#1d3190" d="M 298.5,176.5 C 295.571,177.588 292.737,178.921 290,180.5C 287.551,179.056 285.385,177.222 283.5,175C 279.848,174.501 276.182,174.335 272.5,174.5C 270.287,172.688 267.953,172.355 265.5,173.5C 264.833,173.5 264.5,173.833 264.5,174.5C 261.57,175.299 258.57,175.632 255.5,175.5C 254.903,174.861 254.07,174.528 253,174.5C 251.301,174.387 250.134,175.053 249.5,176.5C 244.882,177.219 240.215,177.719 235.5,178C 234.944,178.383 234.611,178.883 234.5,179.5C 231.746,181.053 230.913,183.386 232,186.5C 235.782,191.124 240.615,193.791 246.5,194.5C 244.221,196.263 241.555,197.263 238.5,197.5C 233.066,195.225 227.4,193.725 221.5,193C 220.069,192.535 218.903,191.701 218,190.5C 218.624,185.491 219.624,180.491 221,175.5C 226.667,173.833 230.333,170.167 232,164.5C 232.903,163.299 234.069,162.465 235.5,162C 242.257,161.966 248.757,160.799 255,158.5C 258.997,158.248 262.163,159.748 264.5,163C 267.179,163.434 269.846,163.268 272.5,162.5C 278.031,164.469 283.698,165.303 289.5,165C 290.5,164 291.5,163 292.5,162C 296.382,162.127 300.215,161.96 304,161.5C 308.197,162.109 309.364,164.276 307.5,168C 307.93,169.434 308.764,170.601 310,171.5C 310.494,173.134 310.66,174.801 310.5,176.5C 306.307,175.968 302.307,175.968 298.5,176.5 Z"/></g>
<g><path style="opacity:1" fill="#bbdc84" d="M 265.5,173.5 C 267.806,173.993 270.139,174.326 272.5,174.5C 276.182,174.335 279.848,174.501 283.5,175C 285.385,177.222 287.551,179.056 290,180.5C 292.737,178.921 295.571,177.588 298.5,176.5C 302.228,176.795 305.895,177.461 309.5,178.5C 302.072,186.032 293.072,189.532 282.5,189C 287.169,188.112 291.503,186.445 295.5,184C 290.657,185.463 285.657,186.796 280.5,188C 278.5,188.667 276.5,188.667 274.5,188C 277.274,185.936 279.107,183.436 280,180.5C 277.255,184.767 273.422,187.101 268.5,187.5C 268.915,183.625 268.415,179.958 267,176.5C 266.723,192.369 262.056,193.702 253,180.5C 252.333,181.5 252.333,182.5 253,183.5C 255.349,186.017 257.849,188.35 260.5,190.5C 259.833,190.833 259.167,191.167 258.5,191.5C 251.172,190.419 244.172,188.586 237.5,186C 242.66,189.499 248.326,191.833 254.5,193C 251.986,194.252 249.32,194.752 246.5,194.5C 240.615,193.791 235.782,191.124 232,186.5C 230.913,183.386 231.746,181.053 234.5,179.5C 239.118,178.781 243.785,178.281 248.5,178C 249.056,177.617 249.389,177.117 249.5,176.5C 250.134,175.053 251.301,174.387 253,174.5C 254.07,174.528 254.903,174.861 255.5,175.5C 257.966,176.634 260.633,176.801 263.5,176C 264.056,175.617 264.389,175.117 264.5,174.5C 264.5,173.833 264.833,173.5 265.5,173.5 Z"/></g>
<g><path style="opacity:1" fill="#e4e9e6" d="M 265.5,173.5 C 267.953,172.355 270.287,172.688 272.5,174.5C 270.139,174.326 267.806,173.993 265.5,173.5 Z"/></g>
<g><path style="opacity:1" fill="#c6ced8" d="M 264.5,174.5 C 264.389,175.117 264.056,175.617 263.5,176C 260.633,176.801 257.966,176.634 255.5,175.5C 258.57,175.632 261.57,175.299 264.5,174.5 Z"/></g>
<g><path style="opacity:1" fill="#eaecf1" d="M 249.5,176.5 C 249.389,177.117 249.056,177.617 248.5,178C 243.785,178.281 239.118,178.781 234.5,179.5C 234.611,178.883 234.944,178.383 235.5,178C 240.215,177.719 244.882,177.219 249.5,176.5 Z"/></g>
<g><path style="opacity:1" fill="#2d3c96" d="M 271.5,244.5 C 270.549,243.081 270.216,241.415 270.5,239.5C 272.197,228.225 272.697,216.892 272,205.5C 271.226,201.286 269.393,197.619 266.5,194.5C 267.348,192.717 268.681,192.217 270.5,193C 272.317,194.8 273.484,196.966 274,199.5C 274.77,214.596 273.936,229.596 271.5,244.5 Z"/></g>
<g><path style="opacity:1" fill="#3b499d" d="M 256.5,205.5 C 258.549,205.706 258.883,206.539 257.5,208C 254.446,208.821 251.446,208.655 248.5,207.5C 251.306,206.832 253.972,206.166 256.5,205.5 Z"/></g>
<g><path style="opacity:1" fill="#243693" d="M 239.5,210.5 C 247.86,210.169 256.193,210.502 264.5,211.5C 256.862,212.497 249.196,212.831 241.5,212.5C 241.667,226.504 241.5,240.504 241,254.5C 240.902,260.627 240.069,266.627 238.5,272.5C 238.167,271.667 237.833,270.833 237.5,270C 239.264,250.215 239.931,230.382 239.5,210.5 Z"/></g>
<g><path style="opacity:1" fill="#2c3b96" d="M 254.5,243.5 C 253.833,238.167 253.167,238.167 252.5,243.5C 251.473,253.223 248.973,262.556 245,271.5C 244.107,272.711 243.274,272.711 242.5,271.5C 249.15,256.548 252.483,240.881 252.5,224.5C 240.5,223.833 240.5,223.167 252.5,222.5C 253.628,214.699 254.294,214.699 254.5,222.5C 267.833,223.167 267.833,223.833 254.5,224.5C 254.96,240.634 258.293,256.134 264.5,271C 264.389,272.722 263.889,272.888 263,271.5C 258.136,262.774 255.302,253.441 254.5,243.5 Z"/></g>
<g><path style="opacity:1" fill="#8a94c5" d="M 254.5,243.5 C 253.833,243.5 253.167,243.5 252.5,243.5C 253.167,238.167 253.833,238.167 254.5,243.5 Z"/></g>
<g><path style="opacity:1" fill="#afb6d8" d="M 270.5,239.5 C 270.216,241.415 270.549,243.081 271.5,244.5C 271.5,252.5 271.5,260.5 271.5,268.5C 270.833,261.5 270.167,254.5 269.5,247.5C 269.194,244.615 269.527,241.948 270.5,239.5 Z"/></g>
<g><path style="opacity:1" fill="#263693" d="M 269.5,247.5 C 270.167,254.5 270.833,261.5 271.5,268.5C 271.352,273.56 272.352,278.394 274.5,283C 273.833,284 273.167,285 272.5,286C 272.833,286.5 273.167,287 273.5,287.5C 276.974,285.938 280.64,285.105 284.5,285C 281.376,284.521 278.543,283.354 276,281.5C 275.37,279.097 276.203,277.263 278.5,276C 283.689,275.015 288.689,275.515 293.5,277.5C 295.439,279.122 295.772,280.956 294.5,283C 292.754,283.471 291.087,284.138 289.5,285C 292.936,285.692 296.27,286.692 299.5,288C 304.043,292.485 303.377,295.818 297.5,298C 290.857,299.783 284.19,299.783 277.5,298C 273.192,296.696 270.692,293.862 270,289.5C 267.03,291.401 263.864,292.901 260.5,294C 251.555,295.659 242.555,296.326 233.5,296C 229.425,294.917 225.425,293.584 221.5,292C 218.662,287.847 219.328,284.18 223.5,281C 226.215,279.092 229.215,277.759 232.5,277C 242.188,276.472 251.855,276.805 261.5,278C 265.363,279.181 268.863,281.014 272,283.5C 269.798,271.701 268.965,259.701 269.5,247.5 Z"/></g>
<g><path style="opacity:1" fill="#6f7cb8" d="M 283.5,277.5 C 286.607,277.351 289.607,277.851 292.5,279C 289.15,279.883 285.983,280.383 283,280.5C 281.601,279.773 280.101,279.273 278.5,279C 280.382,278.802 282.048,278.302 283.5,277.5 Z"/></g>
<g><path style="opacity:1" fill="#4b57a5" d="M 306.5,277.5 C 308.722,277.178 310.556,277.845 312,279.5C 312.015,281.791 312.182,283.958 312.5,286C 305.78,286.646 303.78,283.813 306.5,277.5 Z"/></g>
<g><path style="opacity:1" fill="#fafbfc" d="M 307.5,278.5 C 310.244,279.072 311.077,280.738 310,283.5C 308.108,282.383 307.275,280.716 307.5,278.5 Z"/></g>
<g><path style="opacity:1" fill="#616cb0" d="M 314.5,277.5 C 316.369,279.635 317.036,282.302 316.5,285.5C 315.448,285.649 314.448,285.483 313.5,285C 314.435,282.619 314.768,280.119 314.5,277.5 Z"/></g>
<g><path style="opacity:1" fill="#3b469c" d="M 318.5,280.5 C 319.649,280.791 320.316,281.624 320.5,283C 320.167,283.833 319.833,284.667 319.5,285.5C 318.548,283.955 318.215,282.288 318.5,280.5 Z"/></g>
<g><path style="opacity:1" fill="#c3c9e2" d="M 232.5,281.5 C 237.96,280.897 243.46,280.897 249,281.5C 252.51,283.219 256.344,284.052 260.5,284C 250.615,285.702 240.615,285.702 230.5,284C 234.5,283.667 238.5,283.333 242.5,283C 239.274,281.801 235.941,281.301 232.5,281.5 Z"/></g>
<g><path style="opacity:1" fill="#7078b7" d="M 325.5,279.5 C 330.819,278.543 331.819,280.043 328.5,284C 331.082,286.027 330.582,287.193 327,287.5C 325.2,286.622 323.367,285.955 321.5,285.5C 321.709,279.739 322.542,279.406 324,284.5C 324.5,284 325,283.5 325.5,283C 324.316,281.855 324.316,280.688 325.5,279.5 Z"/></g>
<g><path style="opacity:1" fill="#a5acd3" d="M 284.5,288.5 C 287.413,289.241 290.413,289.741 293.5,290C 288.494,290.114 284.327,291.948 281,295.5C 280.837,293.613 281.671,292.113 283.5,291C 281.5,290.667 279.5,290.333 277.5,290C 280.036,289.814 282.369,289.314 284.5,288.5 Z"/></g>
</svg>
